<svg viewBox="0 0 1200 630" xmlns="http://www.w3.org/2000/svg">
  <defs>
    <radialGradient id="bg1" cx="82%" cy="0%" r="70%"><stop offset="0" stop-color="#F6D7E8"/><stop offset="1" stop-color="#FFFDFB" stop-opacity="0"/></radialGradient>
    <radialGradient id="bg2" cx="0%" cy="40%" r="70%"><stop offset="0" stop-color="#ABDBD8"/><stop offset="1" stop-color="#FFFDFB" stop-opacity="0"/></radialGradient>
    <linearGradient id="g" x1="0" y1="0" x2="0" y2="1"><stop offset="0" stop-color="#fff"/><stop offset="1" stop-color="#ABDBD8"/></linearGradient>
  </defs>
  <rect width="1200" height="630" fill="#FFFDFB"/>
  <rect width="1200" height="630" fill="url(#bg1)"/>
  <rect width="1200" height="630" fill="url(#bg2)"/>
  <!-- mascot -->
  <g transform="translate(190,180) scale(1.4)">
    <line x1="100" y1="34" x2="100" y2="14" stroke="#9ccfcc" stroke-width="6" stroke-linecap="round"/>
    <circle cx="100" cy="12" r="8" fill="#F2BD93"/>
    <rect x="44" y="34" width="112" height="96" rx="34" fill="#ABDBD8"/>
    <rect x="44" y="34" width="112" height="96" rx="34" fill="url(#g)" opacity=".5"/>
    <rect x="62" y="56" width="76" height="54" rx="20" fill="#fff"/>
    <circle cx="84" cy="82" r="8" fill="#4A4A5C"/><circle cx="116" cy="82" r="8" fill="#4A4A5C"/>
    <circle cx="70" cy="94" r="6" fill="#F6D7E8"/><circle cx="130" cy="94" r="6" fill="#F6D7E8"/>
    <path d="M92 96 q8 8 16 0" stroke="#4A4A5C" stroke-width="3" fill="none" stroke-linecap="round"/>
    <rect x="60" y="132" width="80" height="44" rx="20" fill="#cfeeec"/>
    <circle cx="50" cy="150" r="11" fill="#ABDBD8"/><circle cx="150" cy="150" r="11" fill="#ABDBD8"/>
  </g>
  <text x="640" y="300" font-family="'Zen Maru Gothic','Hiragino Maru Gothic ProN',sans-serif" font-size="64" font-weight="700" fill="#4A4A5C">ちいさなロボと、</text>
  <text x="640" y="385" font-family="'Zen Maru Gothic','Hiragino Maru Gothic ProN',sans-serif" font-size="64" font-weight="700" fill="#4A4A5C">つくる毎日。</text>
  <text x="640" y="450" font-family="'M PLUS Rounded 1c',sans-serif" font-size="30" fill="#7a7a88">AI開発ポートフォリオ</text>
</svg>
